<svg xmlns="http://www.w3.org/2000/svg" xmlns:xlink="http://www.w3.org/1999/xlink" width="500" zoomAndPan="magnify" viewBox="0 0 375 374.999991" height="500" preserveAspectRatio="xMidYMid meet" version="1.0"><defs><g/><clipPath id="3dc979bc12"><path d="M 3.433594 154 L 67.933594 154 L 67.933594 219 L 3.433594 219 Z M 3.433594 154 " clip-rule="nonzero"/></clipPath><clipPath id="82940a5806"><path d="M 3.433594 149 L 67.933594 149 L 67.933594 214 L 3.433594 214 Z M 3.433594 149 " clip-rule="nonzero"/></clipPath></defs><g clip-path="url(#3dc979bc12)"><path fill="#ff1616" d="M 51.710938 201.355469 C 51.390625 202.152344 51.113281 202.851562 50.824219 203.546875 C 44.972656 217.761719 24.699219 223.863281 11.859375 212.007812 C 7.660156 208.128906 4.769531 203.578125 3.914062 197.898438 C 3.617188 195.9375 3.570312 193.933594 3.554688 191.945312 C 3.519531 187.5 3.472656 183.046875 3.605469 178.601562 C 3.828125 171.289062 11.859375 166.925781 18.207031 170.601562 C 18.578125 170.816406 18.945312 171.039062 19.410156 171.316406 C 19.683594 170.664062 19.925781 170.066406 20.183594 169.472656 C 25.503906 157.191406 39.285156 151.109375 51.476562 155.785156 C 60.71875 159.332031 66.113281 166.09375 67.546875 175.863281 C 67.875 178.105469 67.757812 180.417969 67.761719 182.703125 C 67.769531 186.519531 67.78125 190.339844 67.644531 194.152344 C 67.515625 197.828125 65.722656 200.613281 62.472656 202.328125 C 59.226562 204.042969 55.953125 203.871094 52.769531 202.039062 C 52.433594 201.84375 52.113281 201.617188 51.710938 201.355469 Z M 8.417969 186.789062 C 8.433594 186.789062 8.449219 186.789062 8.46875 186.789062 C 8.46875 190.007812 8.136719 193.265625 8.53125 196.433594 C 9.667969 205.546875 16.875 212.375 26.144531 213.367188 C 33.453125 214.152344 39.363281 211.484375 43.964844 205.839844 C 47.03125 202.078125 48.023438 197.609375 48.125 192.914062 C 48.222656 188.300781 48.175781 183.683594 48.132812 179.066406 C 48.117188 177.449219 47.542969 175.996094 46.21875 174.96875 C 44.570312 173.683594 42.722656 173.523438 40.859375 174.375 C 38.894531 175.269531 38.066406 176.984375 38.042969 179.046875 C 37.996094 183.464844 38.039062 187.882812 38.015625 192.296875 C 38.015625 193.21875 37.964844 194.152344 37.832031 195.0625 C 36.855469 201.886719 29.46875 205.570312 23.433594 202.203125 C 19.933594 200.253906 18.453125 197.058594 18.398438 193.1875 C 18.328125 188.441406 18.414062 183.691406 18.363281 178.941406 C 18.332031 176.246094 16.257812 174.195312 13.554688 174.023438 C 11 173.863281 8.65625 175.671875 8.460938 178.335938 C 8.257812 181.140625 8.417969 183.972656 8.417969 186.789062 Z M 22.960938 185.007812 C 23.035156 185.007812 23.113281 185.011719 23.191406 185.011719 C 23.191406 187.964844 23.054688 190.925781 23.226562 193.871094 C 23.394531 196.722656 25.652344 198.644531 28.320312 198.546875 C 31.117188 198.445312 33.148438 196.324219 33.199219 193.40625 C 33.230469 191.582031 33.195312 189.753906 33.214844 187.929688 C 33.25 184.542969 33.121094 181.148438 33.390625 177.78125 C 33.820312 172.46875 38.410156 168.820312 43.925781 169.125 C 48.773438 169.394531 52.808594 173.769531 52.835938 178.816406 C 52.859375 182.734375 52.839844 186.652344 52.867188 190.566406 C 52.875 191.925781 52.828125 193.304688 53.035156 194.636719 C 53.378906 196.832031 54.925781 198.320312 56.925781 198.640625 C 60.304688 199.179688 62.90625 196.980469 62.953125 193.4375 C 63.011719 189.234375 63.054688 185.023438 62.949219 180.820312 C 62.890625 178.542969 62.726562 176.226562 62.242188 174.007812 C 60.191406 164.632812 50.878906 157.984375 40.972656 159.179688 C 31.820312 160.28125 24.890625 166.675781 23.457031 175.777344 C 22.984375 178.808594 23.109375 181.929688 22.960938 185.007812 Z M 22.960938 185.007812 " fill-opacity="1" fill-rule="nonzero"/></g><g fill="#ff00ff" fill-opacity="1"><g transform="translate(68.644974, 210.58459)"><g><path d="M 24.984375 0 L 15.09375 0 C 14.3125 0 13.75 -0.171875 13.40625 -0.515625 C 13.0625 -0.859375 12.890625 -1.421875 12.890625 -2.203125 L 12.890625 -32.203125 L 3.90625 -32.203125 C 3.132812 -32.203125 2.570312 -32.375 2.21875 -32.71875 C 1.875 -33.0625 1.703125 -33.617188 1.703125 -34.390625 L 1.703125 -41.78125 C 1.703125 -42.5625 1.875 -43.125 2.21875 -43.46875 C 2.570312 -43.8125 3.132812 -43.984375 3.90625 -43.984375 L 36.171875 -43.984375 C 36.941406 -43.984375 37.5 -43.8125 37.84375 -43.46875 C 38.1875 -43.125 38.359375 -42.5625 38.359375 -41.78125 L 38.359375 -34.390625 C 38.359375 -33.617188 38.1875 -33.0625 37.84375 -32.71875 C 37.5 -32.375 36.941406 -32.203125 36.171875 -32.203125 L 27.1875 -32.203125 L 27.1875 -2.203125 C 27.1875 -1.421875 27.007812 -0.859375 26.65625 -0.515625 C 26.3125 -0.171875 25.753906 0 24.984375 0 Z M 24.984375 0 "/></g></g></g><g fill="#ff00ff" fill-opacity="1"><g transform="translate(108.71227, 210.58459)"><g><path d="M 18.015625 -32.984375 L 18.015625 -25.171875 L 22.609375 -25.171875 C 23.660156 -25.171875 24.367188 -25.441406 24.734375 -25.984375 C 25.109375 -26.535156 25.296875 -27.222656 25.296875 -28.046875 L 25.296875 -30.125 C 25.296875 -30.9375 25.109375 -31.613281 24.734375 -32.15625 C 24.367188 -32.707031 23.660156 -32.984375 22.609375 -32.984375 Z M 15.828125 0 L 6.421875 0 C 5.640625 0 5.078125 -0.171875 4.734375 -0.515625 C 4.390625 -0.859375 4.21875 -1.421875 4.21875 -2.203125 L 4.21875 -41.78125 C 4.21875 -42.5625 4.390625 -43.125 4.734375 -43.46875 C 5.078125 -43.8125 5.640625 -43.984375 6.421875 -43.984375 L 26.765625 -43.984375 C 31.328125 -43.984375 34.472656 -43.035156 36.203125 -41.140625 C 37.929688 -39.253906 38.796875 -36.800781 38.796875 -33.78125 L 38.796875 -30.96875 C 38.796875 -29.257812 38.539062 -27.800781 38.03125 -26.59375 C 37.519531 -25.394531 36.632812 -24.535156 35.375 -24.015625 C 37.570312 -23.765625 39.351562 -22.863281 40.71875 -21.3125 C 42.082031 -19.769531 42.765625 -17.71875 42.765625 -15.15625 L 42.765625 -2.203125 C 42.765625 -1.421875 42.59375 -0.859375 42.25 -0.515625 C 41.90625 -0.171875 41.34375 0 40.5625 0 L 31.09375 0 C 30.320312 0 29.757812 -0.171875 29.40625 -0.515625 C 29.0625 -0.859375 28.890625 -1.421875 28.890625 -2.203125 L 28.890625 -11.546875 C 28.890625 -12.441406 28.71875 -13.101562 28.375 -13.53125 C 28.03125 -13.957031 27.429688 -14.171875 26.578125 -14.171875 L 18.015625 -14.171875 L 18.015625 -2.203125 C 18.015625 -1.421875 17.84375 -0.859375 17.5 -0.515625 C 17.15625 -0.171875 16.597656 0 15.828125 0 Z M 15.828125 0 "/></g></g></g><g fill="#ff00ff" fill-opacity="1"><g transform="translate(154.093367, 210.58459)"><g><path d="M 20.15625 -31.15625 L 17.296875 -21.875 L 26.875 -21.875 L 24.015625 -31.15625 C 23.847656 -31.519531 23.671875 -31.785156 23.484375 -31.953125 C 23.304688 -32.117188 23.09375 -32.203125 22.84375 -32.203125 L 21.328125 -32.203125 C 21.078125 -32.203125 20.859375 -32.117188 20.671875 -31.953125 C 20.492188 -31.785156 20.320312 -31.519531 20.15625 -31.15625 Z M 16.671875 -2.203125 C 16.671875 -1.421875 16.5 -0.859375 16.15625 -0.515625 C 15.8125 -0.171875 15.253906 0 14.484375 0 L 5.5 0 C 4.726562 0 4.164062 -0.171875 3.8125 -0.515625 C 3.46875 -0.859375 3.296875 -1.421875 3.296875 -2.203125 L 3.296875 -18.328125 C 3.296875 -19.546875 3.488281 -20.945312 3.875 -22.53125 C 4.257812 -24.125 4.863281 -25.984375 5.6875 -28.109375 L 11 -41.96875 C 11.238281 -42.664062 11.613281 -43.175781 12.125 -43.5 C 12.632812 -43.820312 13.296875 -43.984375 14.109375 -43.984375 L 30.546875 -43.984375 C 31.316406 -43.984375 31.957031 -43.820312 32.46875 -43.5 C 32.976562 -43.175781 33.359375 -42.664062 33.609375 -41.96875 L 38.921875 -28.109375 C 39.734375 -25.984375 40.332031 -24.125 40.71875 -22.53125 C 41.101562 -20.945312 41.296875 -19.546875 41.296875 -18.328125 L 41.296875 -2.203125 C 41.296875 -1.421875 41.125 -0.859375 40.78125 -0.515625 C 40.4375 -0.171875 39.875 0 39.09375 0 L 29.875 0 C 29.0625 0 28.460938 -0.171875 28.078125 -0.515625 C 27.691406 -0.859375 27.5 -1.421875 27.5 -2.203125 L 27.5 -10.75 L 16.671875 -10.75 Z M 16.671875 -2.203125 "/></g></g></g><g fill="#ff00ff" fill-opacity="1"><g transform="translate(198.680438, 210.58459)"><g><path d="M 15.890625 0 L 6.421875 0 C 5.640625 0 5.078125 -0.171875 4.734375 -0.515625 C 4.390625 -0.859375 4.21875 -1.421875 4.21875 -2.203125 L 4.21875 -41.78125 C 4.21875 -42.5625 4.390625 -43.125 4.734375 -43.46875 C 5.078125 -43.8125 5.640625 -43.984375 6.421875 -43.984375 L 25.109375 -43.984375 C 30.648438 -43.984375 34.4375 -42.882812 36.46875 -40.6875 C 38.507812 -38.488281 39.53125 -35.617188 39.53125 -32.078125 L 39.53125 -24.25 C 39.53125 -20.707031 38.507812 -17.835938 36.46875 -15.640625 C 34.4375 -13.441406 30.648438 -12.34375 25.109375 -12.34375 L 18.078125 -12.34375 L 18.078125 -2.203125 C 18.078125 -1.421875 17.90625 -0.859375 17.5625 -0.515625 C 17.21875 -0.171875 16.660156 0 15.890625 0 Z M 17.96875 -32.5625 L 17.96875 -23.34375 L 23.453125 -23.34375 C 24.640625 -23.34375 25.414062 -23.644531 25.78125 -24.25 C 26.144531 -24.863281 26.328125 -25.554688 26.328125 -26.328125 L 26.328125 -29.5625 C 26.328125 -30.34375 26.144531 -31.035156 25.78125 -31.640625 C 25.414062 -32.253906 24.640625 -32.5625 23.453125 -32.5625 Z M 17.96875 -32.5625 "/></g></g></g><g fill="#ff00ff" fill-opacity="1"><g transform="translate(240.335762, 210.58459)"><g><path d="M 15.890625 0 L 6.421875 0 C 5.640625 0 5.078125 -0.171875 4.734375 -0.515625 C 4.390625 -0.859375 4.21875 -1.421875 4.21875 -2.203125 L 4.21875 -41.78125 C 4.21875 -42.5625 4.390625 -43.125 4.734375 -43.46875 C 5.078125 -43.8125 5.640625 -43.984375 6.421875 -43.984375 L 25.109375 -43.984375 C 30.648438 -43.984375 34.4375 -42.882812 36.46875 -40.6875 C 38.507812 -38.488281 39.53125 -35.617188 39.53125 -32.078125 L 39.53125 -24.25 C 39.53125 -20.707031 38.507812 -17.835938 36.46875 -15.640625 C 34.4375 -13.441406 30.648438 -12.34375 25.109375 -12.34375 L 18.078125 -12.34375 L 18.078125 -2.203125 C 18.078125 -1.421875 17.90625 -0.859375 17.5625 -0.515625 C 17.21875 -0.171875 16.660156 0 15.890625 0 Z M 17.96875 -32.5625 L 17.96875 -23.34375 L 23.453125 -23.34375 C 24.640625 -23.34375 25.414062 -23.644531 25.78125 -24.25 C 26.144531 -24.863281 26.328125 -25.554688 26.328125 -26.328125 L 26.328125 -29.5625 C 26.328125 -30.34375 26.144531 -31.035156 25.78125 -31.640625 C 25.414062 -32.253906 24.640625 -32.5625 23.453125 -32.5625 Z M 17.96875 -32.5625 "/></g></g></g><g fill="#ff00ff" fill-opacity="1"><g transform="translate(281.991075, 210.58459)"><g><path d="M 34.765625 0 L 6.421875 0 C 5.640625 0 5.078125 -0.171875 4.734375 -0.515625 C 4.390625 -0.859375 4.21875 -1.421875 4.21875 -2.203125 L 4.21875 -41.78125 C 4.21875 -42.5625 4.390625 -43.125 4.734375 -43.46875 C 5.078125 -43.8125 5.640625 -43.984375 6.421875 -43.984375 L 34.765625 -43.984375 C 35.535156 -43.984375 36.09375 -43.8125 36.4375 -43.46875 C 36.789062 -43.125 36.96875 -42.5625 36.96875 -41.78125 L 36.96875 -34.640625 C 36.96875 -33.867188 36.789062 -33.304688 36.4375 -32.953125 C 36.09375 -32.609375 35.535156 -32.4375 34.765625 -32.4375 L 17.90625 -32.4375 L 17.90625 -27.734375 L 29.8125 -27.734375 C 30.582031 -27.734375 31.140625 -27.5625 31.484375 -27.21875 C 31.835938 -26.875 32.015625 -26.3125 32.015625 -25.53125 L 32.015625 -19 C 32.015625 -18.226562 31.835938 -17.664062 31.484375 -17.3125 C 31.140625 -16.96875 30.582031 -16.796875 29.8125 -16.796875 L 17.90625 -16.796875 L 17.90625 -11.546875 L 34.765625 -11.546875 C 35.535156 -11.546875 36.09375 -11.375 36.4375 -11.03125 C 36.789062 -10.6875 36.96875 -10.125 36.96875 -9.34375 L 36.96875 -2.203125 C 36.96875 -1.421875 36.789062 -0.859375 36.4375 -0.515625 C 36.09375 -0.171875 35.535156 0 34.765625 0 Z M 34.765625 0 "/></g></g></g><g fill="#ff00ff" fill-opacity="1"><g transform="translate(321.936217, 210.58459)"><g><path d="M 27 0 L 6.421875 0 C 5.640625 0 5.078125 -0.171875 4.734375 -0.515625 C 4.390625 -0.859375 4.21875 -1.421875 4.21875 -2.203125 L 4.21875 -41.78125 C 4.21875 -42.5625 4.390625 -43.125 4.734375 -43.46875 C 5.078125 -43.8125 5.640625 -43.984375 6.421875 -43.984375 L 27 -43.984375 C 32.09375 -43.984375 35.867188 -42.960938 38.328125 -40.921875 C 40.796875 -38.890625 42.03125 -35.757812 42.03125 -31.53125 L 42.03125 -12.46875 C 42.03125 -8.226562 40.796875 -5.085938 38.328125 -3.046875 C 35.867188 -1.015625 32.09375 0 27 0 Z M 18.078125 -32.3125 L 18.078125 -11.546875 L 25.359375 -11.546875 C 26.328125 -11.546875 27.046875 -11.789062 27.515625 -12.28125 C 27.984375 -12.769531 28.21875 -13.523438 28.21875 -14.546875 L 28.21875 -29.390625 C 28.21875 -30.398438 27.984375 -31.140625 27.515625 -31.609375 C 27.046875 -32.078125 26.328125 -32.3125 25.359375 -32.3125 Z M 18.078125 -32.3125 "/></g></g></g><g fill="#00ffff" fill-opacity="1"><g transform="translate(71.828533, 207.615879)"><g><path d="M 24.984375 0 L 15.09375 0 C 14.3125 0 13.75 -0.171875 13.40625 -0.515625 C 13.0625 -0.859375 12.890625 -1.421875 12.890625 -2.203125 L 12.890625 -32.203125 L 3.90625 -32.203125 C 3.132812 -32.203125 2.570312 -32.375 2.21875 -32.71875 C 1.875 -33.0625 1.703125 -33.617188 1.703125 -34.390625 L 1.703125 -41.78125 C 1.703125 -42.5625 1.875 -43.125 2.21875 -43.46875 C 2.570312 -43.8125 3.132812 -43.984375 3.90625 -43.984375 L 36.171875 -43.984375 C 36.941406 -43.984375 37.5 -43.8125 37.84375 -43.46875 C 38.1875 -43.125 38.359375 -42.5625 38.359375 -41.78125 L 38.359375 -34.390625 C 38.359375 -33.617188 38.1875 -33.0625 37.84375 -32.71875 C 37.5 -32.375 36.941406 -32.203125 36.171875 -32.203125 L 27.1875 -32.203125 L 27.1875 -2.203125 C 27.1875 -1.421875 27.007812 -0.859375 26.65625 -0.515625 C 26.3125 -0.171875 25.753906 0 24.984375 0 Z M 24.984375 0 "/></g></g></g><g fill="#00ffff" fill-opacity="1"><g transform="translate(111.895829, 207.615879)"><g><path d="M 18.015625 -32.984375 L 18.015625 -25.171875 L 22.609375 -25.171875 C 23.660156 -25.171875 24.367188 -25.441406 24.734375 -25.984375 C 25.109375 -26.535156 25.296875 -27.222656 25.296875 -28.046875 L 25.296875 -30.125 C 25.296875 -30.9375 25.109375 -31.613281 24.734375 -32.15625 C 24.367188 -32.707031 23.660156 -32.984375 22.609375 -32.984375 Z M 15.828125 0 L 6.421875 0 C 5.640625 0 5.078125 -0.171875 4.734375 -0.515625 C 4.390625 -0.859375 4.21875 -1.421875 4.21875 -2.203125 L 4.21875 -41.78125 C 4.21875 -42.5625 4.390625 -43.125 4.734375 -43.46875 C 5.078125 -43.8125 5.640625 -43.984375 6.421875 -43.984375 L 26.765625 -43.984375 C 31.328125 -43.984375 34.472656 -43.035156 36.203125 -41.140625 C 37.929688 -39.253906 38.796875 -36.800781 38.796875 -33.78125 L 38.796875 -30.96875 C 38.796875 -29.257812 38.539062 -27.800781 38.03125 -26.59375 C 37.519531 -25.394531 36.632812 -24.535156 35.375 -24.015625 C 37.570312 -23.765625 39.351562 -22.863281 40.71875 -21.3125 C 42.082031 -19.769531 42.765625 -17.71875 42.765625 -15.15625 L 42.765625 -2.203125 C 42.765625 -1.421875 42.59375 -0.859375 42.25 -0.515625 C 41.90625 -0.171875 41.34375 0 40.5625 0 L 31.09375 0 C 30.320312 0 29.757812 -0.171875 29.40625 -0.515625 C 29.0625 -0.859375 28.890625 -1.421875 28.890625 -2.203125 L 28.890625 -11.546875 C 28.890625 -12.441406 28.71875 -13.101562 28.375 -13.53125 C 28.03125 -13.957031 27.429688 -14.171875 26.578125 -14.171875 L 18.015625 -14.171875 L 18.015625 -2.203125 C 18.015625 -1.421875 17.84375 -0.859375 17.5 -0.515625 C 17.15625 -0.171875 16.597656 0 15.828125 0 Z M 15.828125 0 "/></g></g></g><g fill="#00ffff" fill-opacity="1"><g transform="translate(157.276926, 207.615879)"><g><path d="M 20.15625 -31.15625 L 17.296875 -21.875 L 26.875 -21.875 L 24.015625 -31.15625 C 23.847656 -31.519531 23.671875 -31.785156 23.484375 -31.953125 C 23.304688 -32.117188 23.09375 -32.203125 22.84375 -32.203125 L 21.328125 -32.203125 C 21.078125 -32.203125 20.859375 -32.117188 20.671875 -31.953125 C 20.492188 -31.785156 20.320312 -31.519531 20.15625 -31.15625 Z M 16.671875 -2.203125 C 16.671875 -1.421875 16.5 -0.859375 16.15625 -0.515625 C 15.8125 -0.171875 15.253906 0 14.484375 0 L 5.5 0 C 4.726562 0 4.164062 -0.171875 3.8125 -0.515625 C 3.46875 -0.859375 3.296875 -1.421875 3.296875 -2.203125 L 3.296875 -18.328125 C 3.296875 -19.546875 3.488281 -20.945312 3.875 -22.53125 C 4.257812 -24.125 4.863281 -25.984375 5.6875 -28.109375 L 11 -41.96875 C 11.238281 -42.664062 11.613281 -43.175781 12.125 -43.5 C 12.632812 -43.820312 13.296875 -43.984375 14.109375 -43.984375 L 30.546875 -43.984375 C 31.316406 -43.984375 31.957031 -43.820312 32.46875 -43.5 C 32.976562 -43.175781 33.359375 -42.664062 33.609375 -41.96875 L 38.921875 -28.109375 C 39.734375 -25.984375 40.332031 -24.125 40.71875 -22.53125 C 41.101562 -20.945312 41.296875 -19.546875 41.296875 -18.328125 L 41.296875 -2.203125 C 41.296875 -1.421875 41.125 -0.859375 40.78125 -0.515625 C 40.4375 -0.171875 39.875 0 39.09375 0 L 29.875 0 C 29.0625 0 28.460938 -0.171875 28.078125 -0.515625 C 27.691406 -0.859375 27.5 -1.421875 27.5 -2.203125 L 27.5 -10.75 L 16.671875 -10.75 Z M 16.671875 -2.203125 "/></g></g></g><g fill="#00ffff" fill-opacity="1"><g transform="translate(201.863997, 207.615879)"><g><path d="M 15.890625 0 L 6.421875 0 C 5.640625 0 5.078125 -0.171875 4.734375 -0.515625 C 4.390625 -0.859375 4.21875 -1.421875 4.21875 -2.203125 L 4.21875 -41.78125 C 4.21875 -42.5625 4.390625 -43.125 4.734375 -43.46875 C 5.078125 -43.8125 5.640625 -43.984375 6.421875 -43.984375 L 25.109375 -43.984375 C 30.648438 -43.984375 34.4375 -42.882812 36.46875 -40.6875 C 38.507812 -38.488281 39.53125 -35.617188 39.53125 -32.078125 L 39.53125 -24.25 C 39.53125 -20.707031 38.507812 -17.835938 36.46875 -15.640625 C 34.4375 -13.441406 30.648438 -12.34375 25.109375 -12.34375 L 18.078125 -12.34375 L 18.078125 -2.203125 C 18.078125 -1.421875 17.90625 -0.859375 17.5625 -0.515625 C 17.21875 -0.171875 16.660156 0 15.890625 0 Z M 17.96875 -32.5625 L 17.96875 -23.34375 L 23.453125 -23.34375 C 24.640625 -23.34375 25.414062 -23.644531 25.78125 -24.25 C 26.144531 -24.863281 26.328125 -25.554688 26.328125 -26.328125 L 26.328125 -29.5625 C 26.328125 -30.34375 26.144531 -31.035156 25.78125 -31.640625 C 25.414062 -32.253906 24.640625 -32.5625 23.453125 -32.5625 Z M 17.96875 -32.5625 "/></g></g></g><g fill="#00ffff" fill-opacity="1"><g transform="translate(243.519321, 207.615879)"><g><path d="M 15.890625 0 L 6.421875 0 C 5.640625 0 5.078125 -0.171875 4.734375 -0.515625 C 4.390625 -0.859375 4.21875 -1.421875 4.21875 -2.203125 L 4.21875 -41.78125 C 4.21875 -42.5625 4.390625 -43.125 4.734375 -43.46875 C 5.078125 -43.8125 5.640625 -43.984375 6.421875 -43.984375 L 25.109375 -43.984375 C 30.648438 -43.984375 34.4375 -42.882812 36.46875 -40.6875 C 38.507812 -38.488281 39.53125 -35.617188 39.53125 -32.078125 L 39.53125 -24.25 C 39.53125 -20.707031 38.507812 -17.835938 36.46875 -15.640625 C 34.4375 -13.441406 30.648438 -12.34375 25.109375 -12.34375 L 18.078125 -12.34375 L 18.078125 -2.203125 C 18.078125 -1.421875 17.90625 -0.859375 17.5625 -0.515625 C 17.21875 -0.171875 16.660156 0 15.890625 0 Z M 17.96875 -32.5625 L 17.96875 -23.34375 L 23.453125 -23.34375 C 24.640625 -23.34375 25.414062 -23.644531 25.78125 -24.25 C 26.144531 -24.863281 26.328125 -25.554688 26.328125 -26.328125 L 26.328125 -29.5625 C 26.328125 -30.34375 26.144531 -31.035156 25.78125 -31.640625 C 25.414062 -32.253906 24.640625 -32.5625 23.453125 -32.5625 Z M 17.96875 -32.5625 "/></g></g></g><g fill="#00ffff" fill-opacity="1"><g transform="translate(285.174634, 207.615879)"><g><path d="M 34.765625 0 L 6.421875 0 C 5.640625 0 5.078125 -0.171875 4.734375 -0.515625 C 4.390625 -0.859375 4.21875 -1.421875 4.21875 -2.203125 L 4.21875 -41.78125 C 4.21875 -42.5625 4.390625 -43.125 4.734375 -43.46875 C 5.078125 -43.8125 5.640625 -43.984375 6.421875 -43.984375 L 34.765625 -43.984375 C 35.535156 -43.984375 36.09375 -43.8125 36.4375 -43.46875 C 36.789062 -43.125 36.96875 -42.5625 36.96875 -41.78125 L 36.96875 -34.640625 C 36.96875 -33.867188 36.789062 -33.304688 36.4375 -32.953125 C 36.09375 -32.609375 35.535156 -32.4375 34.765625 -32.4375 L 17.90625 -32.4375 L 17.90625 -27.734375 L 29.8125 -27.734375 C 30.582031 -27.734375 31.140625 -27.5625 31.484375 -27.21875 C 31.835938 -26.875 32.015625 -26.3125 32.015625 -25.53125 L 32.015625 -19 C 32.015625 -18.226562 31.835938 -17.664062 31.484375 -17.3125 C 31.140625 -16.96875 30.582031 -16.796875 29.8125 -16.796875 L 17.90625 -16.796875 L 17.90625 -11.546875 L 34.765625 -11.546875 C 35.535156 -11.546875 36.09375 -11.375 36.4375 -11.03125 C 36.789062 -10.6875 36.96875 -10.125 36.96875 -9.34375 L 36.96875 -2.203125 C 36.96875 -1.421875 36.789062 -0.859375 36.4375 -0.515625 C 36.09375 -0.171875 35.535156 0 34.765625 0 Z M 34.765625 0 "/></g></g></g><g fill="#00ffff" fill-opacity="1"><g transform="translate(325.119776, 207.615879)"><g><path d="M 27 0 L 6.421875 0 C 5.640625 0 5.078125 -0.171875 4.734375 -0.515625 C 4.390625 -0.859375 4.21875 -1.421875 4.21875 -2.203125 L 4.21875 -41.78125 C 4.21875 -42.5625 4.390625 -43.125 4.734375 -43.46875 C 5.078125 -43.8125 5.640625 -43.984375 6.421875 -43.984375 L 27 -43.984375 C 32.09375 -43.984375 35.867188 -42.960938 38.328125 -40.921875 C 40.796875 -38.890625 42.03125 -35.757812 42.03125 -31.53125 L 42.03125 -12.46875 C 42.03125 -8.226562 40.796875 -5.085938 38.328125 -3.046875 C 35.867188 -1.015625 32.09375 0 27 0 Z M 18.078125 -32.3125 L 18.078125 -11.546875 L 25.359375 -11.546875 C 26.328125 -11.546875 27.046875 -11.789062 27.515625 -12.28125 C 27.984375 -12.769531 28.21875 -13.523438 28.21875 -14.546875 L 28.21875 -29.390625 C 28.21875 -30.398438 27.984375 -31.140625 27.515625 -31.609375 C 27.046875 -32.078125 26.328125 -32.3125 25.359375 -32.3125 Z M 18.078125 -32.3125 "/></g></g></g><g fill="#ff1616" fill-opacity="1"><g transform="translate(70.236752, 209.100236)"><g><path d="M 24.984375 0 L 15.09375 0 C 14.3125 0 13.75 -0.171875 13.40625 -0.515625 C 13.0625 -0.859375 12.890625 -1.421875 12.890625 -2.203125 L 12.890625 -32.203125 L 3.90625 -32.203125 C 3.132812 -32.203125 2.570312 -32.375 2.21875 -32.71875 C 1.875 -33.0625 1.703125 -33.617188 1.703125 -34.390625 L 1.703125 -41.78125 C 1.703125 -42.5625 1.875 -43.125 2.21875 -43.46875 C 2.570312 -43.8125 3.132812 -43.984375 3.90625 -43.984375 L 36.171875 -43.984375 C 36.941406 -43.984375 37.5 -43.8125 37.84375 -43.46875 C 38.1875 -43.125 38.359375 -42.5625 38.359375 -41.78125 L 38.359375 -34.390625 C 38.359375 -33.617188 38.1875 -33.0625 37.84375 -32.71875 C 37.5 -32.375 36.941406 -32.203125 36.171875 -32.203125 L 27.1875 -32.203125 L 27.1875 -2.203125 C 27.1875 -1.421875 27.007812 -0.859375 26.65625 -0.515625 C 26.3125 -0.171875 25.753906 0 24.984375 0 Z M 24.984375 0 "/></g></g></g><g fill="#ff1616" fill-opacity="1"><g transform="translate(110.304048, 209.100236)"><g><path d="M 18.015625 -32.984375 L 18.015625 -25.171875 L 22.609375 -25.171875 C 23.660156 -25.171875 24.367188 -25.441406 24.734375 -25.984375 C 25.109375 -26.535156 25.296875 -27.222656 25.296875 -28.046875 L 25.296875 -30.125 C 25.296875 -30.9375 25.109375 -31.613281 24.734375 -32.15625 C 24.367188 -32.707031 23.660156 -32.984375 22.609375 -32.984375 Z M 15.828125 0 L 6.421875 0 C 5.640625 0 5.078125 -0.171875 4.734375 -0.515625 C 4.390625 -0.859375 4.21875 -1.421875 4.21875 -2.203125 L 4.21875 -41.78125 C 4.21875 -42.5625 4.390625 -43.125 4.734375 -43.46875 C 5.078125 -43.8125 5.640625 -43.984375 6.421875 -43.984375 L 26.765625 -43.984375 C 31.328125 -43.984375 34.472656 -43.035156 36.203125 -41.140625 C 37.929688 -39.253906 38.796875 -36.800781 38.796875 -33.78125 L 38.796875 -30.96875 C 38.796875 -29.257812 38.539062 -27.800781 38.03125 -26.59375 C 37.519531 -25.394531 36.632812 -24.535156 35.375 -24.015625 C 37.570312 -23.765625 39.351562 -22.863281 40.71875 -21.3125 C 42.082031 -19.769531 42.765625 -17.71875 42.765625 -15.15625 L 42.765625 -2.203125 C 42.765625 -1.421875 42.59375 -0.859375 42.25 -0.515625 C 41.90625 -0.171875 41.34375 0 40.5625 0 L 31.09375 0 C 30.320312 0 29.757812 -0.171875 29.40625 -0.515625 C 29.0625 -0.859375 28.890625 -1.421875 28.890625 -2.203125 L 28.890625 -11.546875 C 28.890625 -12.441406 28.71875 -13.101562 28.375 -13.53125 C 28.03125 -13.957031 27.429688 -14.171875 26.578125 -14.171875 L 18.015625 -14.171875 L 18.015625 -2.203125 C 18.015625 -1.421875 17.84375 -0.859375 17.5 -0.515625 C 17.15625 -0.171875 16.597656 0 15.828125 0 Z M 15.828125 0 "/></g></g></g><g fill="#ff1616" fill-opacity="1"><g transform="translate(155.685145, 209.100236)"><g><path d="M 20.15625 -31.15625 L 17.296875 -21.875 L 26.875 -21.875 L 24.015625 -31.15625 C 23.847656 -31.519531 23.671875 -31.785156 23.484375 -31.953125 C 23.304688 -32.117188 23.09375 -32.203125 22.84375 -32.203125 L 21.328125 -32.203125 C 21.078125 -32.203125 20.859375 -32.117188 20.671875 -31.953125 C 20.492188 -31.785156 20.320312 -31.519531 20.15625 -31.15625 Z M 16.671875 -2.203125 C 16.671875 -1.421875 16.5 -0.859375 16.15625 -0.515625 C 15.8125 -0.171875 15.253906 0 14.484375 0 L 5.5 0 C 4.726562 0 4.164062 -0.171875 3.8125 -0.515625 C 3.46875 -0.859375 3.296875 -1.421875 3.296875 -2.203125 L 3.296875 -18.328125 C 3.296875 -19.546875 3.488281 -20.945312 3.875 -22.53125 C 4.257812 -24.125 4.863281 -25.984375 5.6875 -28.109375 L 11 -41.96875 C 11.238281 -42.664062 11.613281 -43.175781 12.125 -43.5 C 12.632812 -43.820312 13.296875 -43.984375 14.109375 -43.984375 L 30.546875 -43.984375 C 31.316406 -43.984375 31.957031 -43.820312 32.46875 -43.5 C 32.976562 -43.175781 33.359375 -42.664062 33.609375 -41.96875 L 38.921875 -28.109375 C 39.734375 -25.984375 40.332031 -24.125 40.71875 -22.53125 C 41.101562 -20.945312 41.296875 -19.546875 41.296875 -18.328125 L 41.296875 -2.203125 C 41.296875 -1.421875 41.125 -0.859375 40.78125 -0.515625 C 40.4375 -0.171875 39.875 0 39.09375 0 L 29.875 0 C 29.0625 0 28.460938 -0.171875 28.078125 -0.515625 C 27.691406 -0.859375 27.5 -1.421875 27.5 -2.203125 L 27.5 -10.75 L 16.671875 -10.75 Z M 16.671875 -2.203125 "/></g></g></g><g fill="#ff1616" fill-opacity="1"><g transform="translate(200.272216, 209.100236)"><g><path d="M 15.890625 0 L 6.421875 0 C 5.640625 0 5.078125 -0.171875 4.734375 -0.515625 C 4.390625 -0.859375 4.21875 -1.421875 4.21875 -2.203125 L 4.21875 -41.78125 C 4.21875 -42.5625 4.390625 -43.125 4.734375 -43.46875 C 5.078125 -43.8125 5.640625 -43.984375 6.421875 -43.984375 L 25.109375 -43.984375 C 30.648438 -43.984375 34.4375 -42.882812 36.46875 -40.6875 C 38.507812 -38.488281 39.53125 -35.617188 39.53125 -32.078125 L 39.53125 -24.25 C 39.53125 -20.707031 38.507812 -17.835938 36.46875 -15.640625 C 34.4375 -13.441406 30.648438 -12.34375 25.109375 -12.34375 L 18.078125 -12.34375 L 18.078125 -2.203125 C 18.078125 -1.421875 17.90625 -0.859375 17.5625 -0.515625 C 17.21875 -0.171875 16.660156 0 15.890625 0 Z M 17.96875 -32.5625 L 17.96875 -23.34375 L 23.453125 -23.34375 C 24.640625 -23.34375 25.414062 -23.644531 25.78125 -24.25 C 26.144531 -24.863281 26.328125 -25.554688 26.328125 -26.328125 L 26.328125 -29.5625 C 26.328125 -30.34375 26.144531 -31.035156 25.78125 -31.640625 C 25.414062 -32.253906 24.640625 -32.5625 23.453125 -32.5625 Z M 17.96875 -32.5625 "/></g></g></g><g fill="#ff1616" fill-opacity="1"><g transform="translate(241.92754, 209.100236)"><g><path d="M 15.890625 0 L 6.421875 0 C 5.640625 0 5.078125 -0.171875 4.734375 -0.515625 C 4.390625 -0.859375 4.21875 -1.421875 4.21875 -2.203125 L 4.21875 -41.78125 C 4.21875 -42.5625 4.390625 -43.125 4.734375 -43.46875 C 5.078125 -43.8125 5.640625 -43.984375 6.421875 -43.984375 L 25.109375 -43.984375 C 30.648438 -43.984375 34.4375 -42.882812 36.46875 -40.6875 C 38.507812 -38.488281 39.53125 -35.617188 39.53125 -32.078125 L 39.53125 -24.25 C 39.53125 -20.707031 38.507812 -17.835938 36.46875 -15.640625 C 34.4375 -13.441406 30.648438 -12.34375 25.109375 -12.34375 L 18.078125 -12.34375 L 18.078125 -2.203125 C 18.078125 -1.421875 17.90625 -0.859375 17.5625 -0.515625 C 17.21875 -0.171875 16.660156 0 15.890625 0 Z M 17.96875 -32.5625 L 17.96875 -23.34375 L 23.453125 -23.34375 C 24.640625 -23.34375 25.414062 -23.644531 25.78125 -24.25 C 26.144531 -24.863281 26.328125 -25.554688 26.328125 -26.328125 L 26.328125 -29.5625 C 26.328125 -30.34375 26.144531 -31.035156 25.78125 -31.640625 C 25.414062 -32.253906 24.640625 -32.5625 23.453125 -32.5625 Z M 17.96875 -32.5625 "/></g></g></g><g fill="#ff1616" fill-opacity="1"><g transform="translate(283.582853, 209.100236)"><g><path d="M 34.765625 0 L 6.421875 0 C 5.640625 0 5.078125 -0.171875 4.734375 -0.515625 C 4.390625 -0.859375 4.21875 -1.421875 4.21875 -2.203125 L 4.21875 -41.78125 C 4.21875 -42.5625 4.390625 -43.125 4.734375 -43.46875 C 5.078125 -43.8125 5.640625 -43.984375 6.421875 -43.984375 L 34.765625 -43.984375 C 35.535156 -43.984375 36.09375 -43.8125 36.4375 -43.46875 C 36.789062 -43.125 36.96875 -42.5625 36.96875 -41.78125 L 36.96875 -34.640625 C 36.96875 -33.867188 36.789062 -33.304688 36.4375 -32.953125 C 36.09375 -32.609375 35.535156 -32.4375 34.765625 -32.4375 L 17.90625 -32.4375 L 17.90625 -27.734375 L 29.8125 -27.734375 C 30.582031 -27.734375 31.140625 -27.5625 31.484375 -27.21875 C 31.835938 -26.875 32.015625 -26.3125 32.015625 -25.53125 L 32.015625 -19 C 32.015625 -18.226562 31.835938 -17.664062 31.484375 -17.3125 C 31.140625 -16.96875 30.582031 -16.796875 29.8125 -16.796875 L 17.90625 -16.796875 L 17.90625 -11.546875 L 34.765625 -11.546875 C 35.535156 -11.546875 36.09375 -11.375 36.4375 -11.03125 C 36.789062 -10.6875 36.96875 -10.125 36.96875 -9.34375 L 36.96875 -2.203125 C 36.96875 -1.421875 36.789062 -0.859375 36.4375 -0.515625 C 36.09375 -0.171875 35.535156 0 34.765625 0 Z M 34.765625 0 "/></g></g></g><g fill="#ff1616" fill-opacity="1"><g transform="translate(323.527996, 209.100236)"><g><path d="M 27 0 L 6.421875 0 C 5.640625 0 5.078125 -0.171875 4.734375 -0.515625 C 4.390625 -0.859375 4.21875 -1.421875 4.21875 -2.203125 L 4.21875 -41.78125 C 4.21875 -42.5625 4.390625 -43.125 4.734375 -43.46875 C 5.078125 -43.8125 5.640625 -43.984375 6.421875 -43.984375 L 27 -43.984375 C 32.09375 -43.984375 35.867188 -42.960938 38.328125 -40.921875 C 40.796875 -38.890625 42.03125 -35.757812 42.03125 -31.53125 L 42.03125 -12.46875 C 42.03125 -8.226562 40.796875 -5.085938 38.328125 -3.046875 C 35.867188 -1.015625 32.09375 0 27 0 Z M 18.078125 -32.3125 L 18.078125 -11.546875 L 25.359375 -11.546875 C 26.328125 -11.546875 27.046875 -11.789062 27.515625 -12.28125 C 27.984375 -12.769531 28.21875 -13.523438 28.21875 -14.546875 L 28.21875 -29.390625 C 28.21875 -30.398438 27.984375 -31.140625 27.515625 -31.609375 C 27.046875 -32.078125 26.328125 -32.3125 25.359375 -32.3125 Z M 18.078125 -32.3125 "/></g></g></g><g clip-path="url(#82940a5806)"><path fill="#ff1616" d="M 51.710938 196.824219 C 51.390625 197.617188 51.113281 198.316406 50.824219 199.015625 C 44.972656 213.226562 24.699219 219.328125 11.859375 207.472656 C 7.660156 203.59375 4.769531 199.042969 3.914062 193.363281 C 3.617188 191.40625 3.570312 189.398438 3.554688 187.414062 C 3.519531 182.964844 3.472656 178.511719 3.605469 174.066406 C 3.828125 166.753906 11.859375 162.390625 18.207031 166.066406 C 18.578125 166.28125 18.945312 166.503906 19.410156 166.78125 C 19.683594 166.128906 19.925781 165.53125 20.183594 164.9375 C 25.503906 152.65625 39.285156 146.574219 51.476562 151.25 C 60.71875 154.796875 66.113281 161.558594 67.546875 171.328125 C 67.875 173.570312 67.757812 175.886719 67.761719 178.167969 C 67.769531 181.984375 67.78125 185.804688 67.644531 189.621094 C 67.515625 193.292969 65.722656 196.078125 62.472656 197.792969 C 59.226562 199.507812 55.953125 199.335938 52.769531 197.503906 C 52.433594 197.308594 52.113281 197.082031 51.710938 196.824219 Z M 8.417969 182.253906 C 8.433594 182.253906 8.449219 182.253906 8.46875 182.253906 C 8.46875 185.472656 8.136719 188.734375 8.53125 191.902344 C 9.667969 201.011719 16.875 207.839844 26.144531 208.832031 C 33.453125 209.617188 39.363281 206.953125 43.964844 201.308594 C 47.03125 197.542969 48.023438 193.078125 48.125 188.378906 C 48.222656 183.765625 48.175781 179.148438 48.132812 174.53125 C 48.117188 172.917969 47.542969 171.460938 46.21875 170.433594 C 44.570312 169.148438 42.722656 168.992188 40.859375 169.839844 C 38.894531 170.734375 38.066406 172.449219 38.042969 174.511719 C 37.996094 178.929688 38.039062 183.347656 38.015625 187.761719 C 38.015625 188.6875 37.964844 189.617188 37.832031 190.527344 C 36.855469 197.351562 29.46875 201.039062 23.433594 197.671875 C 19.933594 195.71875 18.453125 192.527344 18.398438 188.652344 C 18.328125 183.90625 18.414062 179.15625 18.363281 174.40625 C 18.332031 171.710938 16.257812 169.660156 13.554688 169.488281 C 11 169.328125 8.65625 171.136719 8.460938 173.800781 C 8.257812 176.605469 8.417969 179.4375 8.417969 182.253906 Z M 22.960938 180.472656 C 23.035156 180.476562 23.113281 180.476562 23.191406 180.480469 C 23.191406 183.429688 23.054688 186.394531 23.226562 189.335938 C 23.394531 192.191406 25.652344 194.109375 28.320312 194.015625 C 31.117188 193.910156 33.148438 191.789062 33.199219 188.871094 C 33.230469 187.046875 33.195312 185.21875 33.214844 183.394531 C 33.25 180.011719 33.121094 176.613281 33.390625 173.246094 C 33.820312 167.933594 38.410156 164.285156 43.925781 164.589844 C 48.773438 164.859375 52.808594 169.234375 52.835938 174.285156 C 52.859375 178.199219 52.839844 182.117188 52.867188 186.035156 C 52.875 187.390625 52.828125 188.769531 53.035156 190.101562 C 53.378906 192.300781 54.925781 193.785156 56.925781 194.105469 C 60.304688 194.644531 62.90625 192.445312 62.953125 188.902344 C 63.011719 184.699219 63.054688 180.488281 62.949219 176.289062 C 62.890625 174.011719 62.726562 171.695312 62.242188 169.472656 C 60.191406 160.097656 50.878906 153.453125 40.972656 154.644531 C 31.820312 155.746094 24.890625 162.140625 23.457031 171.246094 C 22.984375 174.273438 23.109375 177.394531 22.960938 180.472656 Z M 22.960938 180.472656 " fill-opacity="1" fill-rule="nonzero"/></g></svg>